Coordinates
version=1
nRows=12
nColumns=24
inDegrees=yes

Units are S.I. units (second, meters, Newtons, ...)
Angles are in degrees.

endheader
time	pelvis_tilt	pelvis_list	pelvis_rotation	pelvis_tx	pelvis_ty	pelvis_tz	hip_flexion_r	hip_adduction_r	hip_rotation_r	knee_angle_r	ankle_angle_r	subtalar_angle_r	mtp_angle_r	hip_flexion_l	hip_adduction_l	hip_rotation_l	knee_angle_l	ankle_angle_l	subtalar_angle_l	mtp_angle_l	lumbar_extension	lumbar_bending	lumbar_rotation
      6.65000000	     11.75453300	     -1.19694598	      7.05625012	     -0.75786342	      0.73214549	      0.15867021	      8.11285141	      0.97476349	      5.21356173	    -11.30118064	     -0.48255186	    -17.04531447	      0.00000000	    -26.91378965	     -3.56560008	      7.79438240	    -26.28269824	      6.55592208	    -13.90926849	      0.00000000	    -24.38195512	      5.94726684	    -17.46099309
      6.66000000	     11.86125877	     -1.90839411	      7.14446412	     -0.74481385	      0.73359129	      0.16083971	      7.77577050	      2.21887653	      5.24835519	    -12.67508866	      0.86284112	    -17.36176089	      0.00000000	    -25.45911187	     -4.31935876	      6.58278799	    -29.92810508	      2.45951462	    -15.44079225	      0.00000000	    -24.41132805	      6.88870290	    -17.70145161
      6.67000000	     11.96599120	     -2.52311752	      7.32018619	     -0.73194785	      0.73521059	      0.16290165	      7.10948395	      3.34213299	      5.32245068	    -13.47344058	      2.20657128	    -17.70199626	      0.00000000	    -23.74765410	     -5.08397947	      5.38782397	    -33.73321470	     -2.00506532	    -17.03640494	      0.00000000	    -24.46999632	      7.71987787	    -17.93436624
      6.68000000	     11.96814720	     -2.97241058	      7.62789885	     -0.71932621	      0.73689598	      0.16477428	      6.26344054	      4.22688322	      5.27222494	    -13.76665728	      3.45325294	    -17.97124397	      0.00000000	    -21.69672843	     -5.76895438	      4.41039980	    -37.62872078	     -6.64923789	    -18.85150349	      0.00000000	    -24.43396368	      8.37248213	    -18.29456106
      6.69000000	     11.89207497	     -3.26336416	      8.08377689	     -0.70696827	      0.73864599	      0.16641845	      5.25409525	      4.86753073	      4.97243647	    -13.61687889	      4.61352781	    -18.03500633	      0.00000000	    -19.37740665	     -6.36158436	      3.68989305	    -41.52089773	    -11.08178284	    -20.80954862	      0.00000000	    -24.32313582	      8.86286813	    -18.78036277
      6.70000000	     11.67605747	     -3.40045118	      8.65253307	     -0.69489651	      0.74036083	      0.16785486	      4.21190365	      5.26709684	      4.43962313	    -13.12947153	      5.59392103	    -17.93494816	      0.00000000	    -16.76086263	     -6.81976157	      3.18463685	    -45.35273144	    -14.83670245	    -22.68862472	      0.00000000	    -24.06978425	      9.17363842	    -19.38240495
      6.71000000	     11.44012839	     -3.42420616	      9.27871600	     -0.68306513	      0.74212432	      0.16909258	      3.05838280	      5.49059056	      3.60479977	    -12.38051521	      6.58778745	    -17.53333970	      0.00000000	    -14.08525113	     -7.13946408	      2.82903068	    -48.96175713	    -17.65997608	    -24.53080185	      0.00000000	    -23.81861456	      9.35554864	    -19.94550522
      6.72000000	     11.14429734	     -3.35964847	      9.89499489	     -0.67153474	      0.74383495	      0.17020180	      1.94218279	      5.58193252	      2.55266903	    -11.55330020	      7.59154930	    -16.75183604	      0.00000000	    -11.33408472	     -7.27378471	      2.59965354	    -52.33362093	    -19.22320783	    -26.03092570	      0.00000000	    -23.56052525	      9.40624895	    -20.39676115
      6.73000000	     10.78000672	     -3.25216800	     10.39731238	     -0.66018355	      0.74544503	      0.17130322	      0.90647673	      5.59755939	      1.32497141	    -10.70376905	      8.57537088	    -15.54074721	      0.00000000	     -8.56086845	     -7.31442703	      2.21507069	    -55.37701915	    -19.29150970	    -26.81140353	      0.00000000	    -23.26095950	      9.34341671	    -20.72388936
      6.74000000	     10.36490508	     -3.10925003	     10.70331623	     -0.64901035	      0.74691526	      0.17252511	     -0.10910067	      5.61201414	      0.70770706	     -9.78866333	      9.19261594	    -15.02485542	      0.00000000	     -5.83336897	     -7.22876289	      1.67611508	    -58.04159144	    -18.03914598	    -26.86293748	      0.00000000	    -22.97339931	      9.14533440	    -20.77497691
      6.75000000	      9.96503182	     -2.94318463	     10.80994549	     -0.63797136	      0.74829804	      0.17383602	     -1.08007736	      5.59970499	      0.17917498	     -8.95300579	      9.78478883	    -14.34864805	      0.00000000	     -3.24495187	     -7.07116166	      0.94314407	    -60.27894631	    -15.69913697	    -26.10650951	      0.00000000	    -22.76206120	      8.85134739	    -20.58298046
      6.76000000	      9.53534965	     -2.77065394	     10.70497322	     -0.62702975	      0.74950206	      0.17529752	     -1.95007288	      5.57773260	     -0.11811208	     -8.21557863	     10.35151081	    -13.72409888	      0.00000000	     -0.73663723	     -6.88804376	      0.00157713	    -62.10955196	    -12.58332655	    -24.44422243	      0.00000000	    -22.56418467	      8.46146060	    -20.14808643
